<svg xmlns="http://www.w3.org/2000/svg" xmlns:xlink="http://www.w3.org/1999/xlink" width="500" zoomAndPan="magnify" viewBox="0 0 375 374.999991" height="500" preserveAspectRatio="xMidYMid meet" version="1.0"><defs><clipPath id="da567eb256"><path d="M 22 77.839844 L 353 77.839844 L 353 296.839844 L 22 296.839844 Z M 22 77.839844 " clip-rule="nonzero"/></clipPath></defs><rect x="-37.5" width="450" fill="#ffffff" y="-37.499999" height="449.999989" fill-opacity="1"/><rect x="-37.5" width="450" fill="#ffedd5" y="-37.499999" height="449.999989" fill-opacity="1"/><g clip-path="url(#da567eb256)"><path fill="#1d1e78" d="M 73.773438 172.050781 C 67.75 172.050781 67.757812 162.707031 73.773438 162.707031 C 79.792969 162.707031 79.785156 172.050781 73.773438 172.050781 Z M 92.492188 206.570312 C 86.46875 206.570312 86.480469 197.226562 92.492188 197.226562 C 98.519531 197.226562 98.507812 206.570312 92.492188 206.570312 Z M 136.175781 168.875 C 130.152344 168.875 130.160156 159.53125 136.175781 159.53125 C 142.199219 159.53125 142.1875 168.875 136.175781 168.875 Z M 213.734375 243.761719 C 207.703125 243.761719 207.714844 234.40625 213.734375 234.40625 C 219.753906 234.40625 219.742188 243.761719 213.734375 243.761719 Z M 322.9375 200.46875 C 316.90625 200.46875 316.917969 191.128906 322.9375 191.128906 C 328.957031 191.128906 328.945312 200.46875 322.9375 200.46875 Z M 296.1875 168.875 C 290.167969 168.875 290.179688 159.53125 296.1875 159.53125 C 302.21875 159.53125 302.195312 168.875 296.1875 168.875 Z M 280.589844 200.46875 C 274.570312 200.46875 274.570312 191.128906 280.589844 191.128906 C 286.609375 191.128906 286.597656 200.46875 280.589844 200.46875 Z M 187.472656 287.800781 C 107.777344 287.800781 69.589844 269.285156 51.601562 253.757812 C 42.398438 245.828125 37.460938 237.964844 34.8125 231.898438 C 52.109375 241.765625 92.175781 257.316406 174.261719 258.890625 L 174.425781 258.890625 C 175.582031 258.914062 176.75 258.925781 177.914062 258.949219 C 178.40625 258.949219 178.90625 258.960938 179.398438 258.972656 C 180.433594 258.984375 181.472656 258.996094 182.511719 258.996094 C 183.933594 259.007812 185.371094 259.019531 186.816406 259.019531 L 187.46875 259.207031 L 188.132812 259.019531 C 189.582031 259.019531 191.015625 259.007812 192.425781 258.996094 C 193.453125 258.996094 194.457031 258.984375 195.460938 258.972656 C 195.996094 258.960938 196.535156 258.949219 197.070312 258.949219 C 198.203125 258.925781 199.332031 258.914062 200.453125 258.890625 L 200.839844 258.890625 C 269.234375 257.5625 308.421875 246.527344 329.570312 237.183594 C 329.628906 237.160156 329.675781 237.125 329.734375 237.101562 C 330.503906 236.761719 331.261719 236.414062 331.996094 236.074219 C 332.007812 236.074219 332.019531 236.0625 332.03125 236.0625 C 332.289062 235.945312 332.53125 235.828125 332.777344 235.699219 C 333.011719 235.597656 333.246094 235.492188 333.476562 235.375 C 333.664062 235.28125 333.863281 235.1875 334.0625 235.09375 C 334.445312 234.90625 334.832031 234.722656 335.203125 234.535156 C 335.238281 234.511719 335.273438 234.5 335.308594 234.476562 C 335.765625 234.242188 336.207031 234.019531 336.640625 233.800781 C 336.6875 233.777344 336.722656 233.753906 336.769531 233.730469 C 337.945312 233.109375 339.054688 232.515625 340.070312 231.933594 C 331.660156 251.054688 300.742188 287.800781 187.46875 287.800781 Z M 106.011719 103.503906 C 107.832031 103.835938 109.636719 104.183594 111.4375 104.613281 C 117.578125 106.078125 123.617188 108.125 129.386719 110.695312 C 129.902344 110.921875 130.402344 111.167969 130.914062 111.40625 C 122.269531 122.453125 115.652344 135.15625 111.453125 147.859375 C 109.5625 153.582031 118.585938 156.035156 120.464844 150.339844 C 124.648438 137.675781 130.832031 125.75 139.1875 115.648438 C 154.714844 124.429688 168.152344 136.738281 178.398438 151.398438 C 179.585938 153.109375 180.742188 154.851562 181.851562 156.609375 C 174.417969 169.429688 168.960938 183.351562 164.96875 197.601562 C 163.347656 203.410156 172.355469 205.882812 173.976562 200.085938 C 177.242188 188.410156 181.769531 177.039062 187.496094 166.414062 C 193.097656 177.089844 197.390625 188.421875 200.644531 200.085938 C 202.265625 205.871094 211.28125 203.410156 209.660156 197.601562 C 205.730469 183.550781 200.058594 169.929688 192.746094 157.394531 C 203.59375 140.257812 217.886719 125.632812 235.429688 115.632812 C 243.785156 125.742188 249.976562 137.671875 254.15625 150.339844 C 256.03125 156.027344 265.0625 153.589844 263.171875 147.859375 C 258.972656 135.148438 252.347656 122.4375 243.703125 111.386719 C 249.242188 108.839844 255.0625 106.71875 261.1875 105.113281 C 263.40625 104.53125 265.644531 104.039062 267.910156 103.625 C 268.070312 103.589844 268.46875 103.523438 268.828125 103.460938 C 312.085938 126.265625 342.894531 170.382812 343.199219 218.65625 C 341.402344 220.117188 337.773438 222.730469 331.683594 225.84375 C 331.546875 225.914062 331.417969 225.972656 331.277344 226.042969 C 331.066406 226.148438 330.855469 226.261719 330.636719 226.367188 C 330.402344 226.484375 330.15625 226.601562 329.921875 226.71875 C 329.761719 226.800781 329.585938 226.882812 329.421875 226.964844 C 329.105469 227.113281 328.78125 227.265625 328.453125 227.429688 C 328.335938 227.476562 328.21875 227.535156 328.105469 227.582031 C 327.695312 227.78125 327.285156 227.964844 326.855469 228.164062 C 326.796875 228.1875 326.75 228.210938 326.691406 228.234375 C 305.949219 237.578125 264.339844 249.617188 187.472656 249.6875 C 76.53125 249.59375 39.027344 224.558594 31.734375 218.65625 C 32.035156 170.414062 62.804688 126.320312 106.011719 103.503906 Z M 217.464844 87.855469 C 230.332031 89.140625 242.804688 92.257812 254.585938 96.914062 C 248.601562 98.617188 242.757812 100.925781 237.121094 103.742188 C 231.265625 97.550781 224.675781 92.136719 217.464844 87.855469 Z M 137.234375 104.015625 C 131.664062 101.292969 125.816406 99.003906 119.699219 97.175781 C 131.554688 92.421875 144.121094 89.21875 157.105469 87.886719 C 149.804688 92.230469 143.144531 97.726562 137.234375 104.015625 Z M 187.054688 148.3125 C 176.15625 132.261719 162.308594 118.488281 145.699219 108.597656 C 150.5625 103.886719 155.976562 99.71875 162.042969 96.269531 C 167.816406 92.980469 173.941406 90.402344 180.367188 88.679688 C 182.269531 88.171875 184.183594 87.761719 186.121094 87.390625 C 186.386719 87.339844 186.867188 87.25 187.179688 87.191406 C 187.085938 87.214844 186.960938 87.234375 186.796875 87.261719 C 186.972656 87.230469 187.15625 87.21875 187.332031 87.203125 C 187.484375 87.214844 187.554688 87.21875 187.589844 87.214844 C 187.730469 87.246094 187.960938 87.292969 188.324219 87.363281 C 190.320312 87.742188 192.300781 88.152344 194.261719 88.679688 C 200.679688 90.40625 206.804688 92.980469 212.589844 96.269531 C 218.550781 99.667969 223.90625 103.765625 228.699219 108.390625 C 212.519531 118.214844 198.425781 131.980469 188.160156 146.683594 C 187.789062 147.21875 187.425781 147.769531 187.054688 148.3125 Z M 352.8125 209.359375 L 352.195312 209.976562 C 349.730469 176.128906 334.066406 144.226562 307.421875 119.3125 C 296.875 109.453125 285 101.160156 272.304688 94.648438 C 272.050781 94.46875 271.746094 94.316406 271.417969 94.207031 C 250.433594 83.613281 227.253906 77.855469 204.144531 77.855469 L 188.03125 77.855469 C 187.847656 77.847656 187.671875 77.828125 187.472656 77.84375 C 187.460938 77.847656 187.4375 77.847656 187.425781 77.855469 L 187.203125 77.855469 C 187.179688 77.847656 187.15625 77.847656 187.144531 77.84375 C 186.949219 77.828125 186.785156 77.847656 186.597656 77.855469 L 170.789062 77.855469 C 147.773438 77.855469 124.683594 83.566406 103.765625 94.082031 C 102.964844 94.226562 102.308594 94.578125 101.816406 95.078125 C 89.429688 101.523438 77.832031 109.660156 67.515625 119.3125 C 40.875 144.21875 25.207031 176.113281 22.75 209.964844 L 22.132812 209.359375 L 22.410156 220.746094 L 22.433594 222.75 L 22.597656 222.914062 C 23.3125 228.445312 26.894531 244.378906 44.695312 260.117188 C 72.46875 284.671875 120.507812 297.132812 187.472656 297.132812 C 254.445312 297.132812 302.484375 284.671875 330.25 260.117188 C 348.074219 244.367188 351.644531 228.410156 352.355469 222.890625 L 352.496094 222.75 L 352.519531 221.304688 C 352.53125 221.09375 352.53125 220.957031 352.53125 220.898438 L 352.8125 209.359375 " fill-opacity="1" fill-rule="nonzero"/></g></svg>